<svg width="169px" height="221px" viewBox="0 0 169 221" version="1.1" xmlns="http://www.w3.org/2000/svg" xmlns:xlink="http://www.w3.org/1999/xlink">
    <g stroke="none" stroke-width="1" fill="none" fill-rule="evenodd">
        <g id="right-drawn-arrow" transform="translate(-48.000000, -24.000000)" fill="#DFDFDC">
            <path d="M232.135977,211.868978 C228.304181,200.079316 222.409109,188.878198 217.397816,177.677562 C216.808309,176.203794 214.45028,176.203794 213.56602,177.088055 C208.55569,182.393619 202.955372,187.699184 199.712601,194.183763 L199.417847,194.183763 C163.457909,196.836545 128.676986,166.18169 103.917684,143.780899 C75.3265859,118.137337 49.38827,86.8934562 39.0718943,49.4597503 C38.4823871,44.7436928 37.8928799,39.7328818 37.8928799,34.7220708 C37.8928799,32.3640421 34.6505905,32.3640421 34.3558369,34.7220708 L34.3558369,37.3748531 C33.1768225,37.3748531 32.2925617,38.2591139 32.2925617,39.7328818 C32.5873153,42.9751713 33.4715761,46.2174608 34.0610833,49.4597503 C36.419112,129.337973 116.002581,206.26866 193.817529,211.279471 C191.164747,215.995529 188.8072,221.005858 185.859664,225.722397 C184.385414,227.785191 186.743924,229.848466 188.8072,229.553712 C203.544879,227.490919 216.808791,220.416351 230.367456,215.111268 C231.545989,214.816514 232.725003,213.6375 232.135977,211.868978 L232.135977,211.868978 Z M192.638515,223.659122 C194.407518,219.827325 195.586051,215.995529 197.649326,212.163732 C198.239314,210.689482 197.354572,209.51095 196.470311,209.216196 C196.470311,208.331935 195.880804,207.741946 194.996543,207.447674 C124.550435,195.657531 67.3682389,147.612696 46.1459805,82.4716707 C59.9993992,108.115233 81.2216577,130.516506 102.149163,149.380736 C117.476349,163.234636 133.687797,175.613805 151.373012,185.930181 C165.226431,193.888528 182.616893,201.257367 198.533586,196.247038 L198.533586,196.247038 C197.649326,198.605067 201.186369,199.784081 202.365383,198.01556 C206.19718,193.004749 210.028976,188.288691 214.155527,183.867387 C218.281595,193.004749 222.703381,202.141628 225.945189,211.573743 C215.039787,215.700775 204.133905,221.00634 192.638515,223.659122 L192.638515,223.659122 Z" id="Shape" transform="translate(132.292562, 131.267750) scale(1, -1) rotate(-350.000000) translate(-132.292562, -131.267750) "></path>
        </g>
    </g>
</svg>